<?xml version="1.0" encoding="UTF-8"?>
<svg width="256" height="256" version="1.1" viewBox="0 0 67.733 67.733" xml:space="preserve" xmlns="http://www.w3.org/2000/svg" xmlns:xlink="http://www.w3.org/1999/xlink"><defs><mask id="mask89" maskUnits="userSpaceOnUse"><path d="m33.417 17.898c-1.4151-0.0721-2.8169 0.10111-4.1569 0.51366 0.41372-0.07447 0.83266-0.12224 1.2552-0.14314 0.54417-0.02684 1.0933-0.0091 1.6438 0.05323 6.9644 0.7861 12.741 8.3831 12.903 16.968 0.08304 4.4032-1.3525 8.4289-3.9501 11.077l1.8407-0.23306h5.29e-4c3.0656-2.833 4.7795-7.143 4.6845-11.781-0.17835-8.6976-6.5453-16.065-14.221-16.456z" fill="#fff"/></mask><linearGradient id="linearGradient94" x1="27.994" x2="56.717" y1="9.7825" y2="82.11" gradientUnits="userSpaceOnUse"><stop stop-color="#fff" offset="0"/><stop stop-color="#a4a4a4" offset="1"/></linearGradient></defs><g stroke="#000" stroke-linecap="round" stroke-linejoin="round"><path d="m33.455 6.4032a30.852 26.738 75.816 0 0-8.0744 0.99787 30.67 24.065 75.993 0 0-18.298 27.052 30.852 26.738 75.816 0 0 0.0041342 1.1658 30.852 26.738 75.816 0 0 5.7087 18.526c0.011624 0.005221 0.02351 0.010284 0.03514 0.015503a30.67 24.065 75.993 0 0 0 5.17e-4c1.7188 0.77134 3.4969 1.5316 5.8859 2.1689l0.42892-2.3585 16.866 4.2168 1.9306 2.5725c2.7898 0.94875 6.0803 1.0626 9.4335 1.0723l1.0268-0.12971a30.67 24.065 75.993 0 0 5.16e-4 -5.16e-4l3.575-0.45217h0.001033a30.852 26.738 75.816 0 0 9.0992-22.883 30.852 26.738 75.816 0 0-27.623-31.964z" fill="#e9e9e9" stroke-width="2.6458"/><path d="m33.455 6.4031a30.852 26.738 75.816 0 0-26.368 29.216 30.852 26.738 75.816 0 0 5.7085 18.526c1.7299 0.77686 3.5157 1.5435 5.9213 2.1852l0.42861-2.3589 16.866 4.2169 1.9303 2.5727c2.7898 0.94875 6.0802 1.0624 9.4335 1.072l4.6023-0.58219 9.58e-4 -1e-6a30.852 26.738 75.816 0 0 9.0993-22.883 30.852 26.738 75.816 0 0-27.623-31.964z" fill="#b1b1b1" stroke-width=".79375"/><g transform="matrix(1.9424 0 0 1.9424 -31.455 -28.362)" fill="none" mask="url(#mask89)" stroke-width=".40864"><path d="m73.514 38.229-46.139 6.255"/><path d="m48.812 7.6085-22.728 14.349"/><path d="m49.415 8.3553-23.299 14.152"/><path d="m50.017 9.1022-23.87 13.955"/><path d="m50.62 9.849-24.441 13.757"/><path d="m51.222 10.596-25.012 13.56"/><path d="m51.825 11.343-25.583 13.362"/><path d="m52.427 12.09-26.154 13.165"/><path d="m53.03 12.836-26.725 12.967"/><path d="m53.632 13.583-27.296 12.77"/><path d="m54.235 14.33-27.867 12.572"/><path d="m54.837 15.077-28.438 12.375"/><path d="m55.44 15.824-29.009 12.178"/><path d="m56.042 16.57-29.58 11.98"/><path d="m56.645 17.317-30.151 11.783"/><path d="m57.247 18.064-30.722 11.585"/><path d="m57.85 18.811-31.293 11.388"/><path d="m58.452 19.558-31.864 11.19"/><path d="m59.055 20.305-32.435 10.993"/><path d="m59.657 21.052-33.006 10.796"/><path d="m60.26 21.798-33.577 10.598"/><path d="m60.862 22.545-34.148 10.401"/><path d="m61.464 23.292-34.719 10.203"/><path d="m62.067 24.039-35.29 10.006"/><path d="m62.67 24.786-35.861 9.8086"/><path d="m63.272 25.533-36.432 9.6111"/><path d="m63.874 26.279-37.003 9.4138"/><path d="m64.477 27.026-37.574 9.2163"/><path d="m65.079 27.773-38.145 9.0189"/><path d="m65.682 28.52-38.716 8.8215"/><path d="m66.284 29.267-39.287 8.624"/><path d="m66.887 30.014-39.858 8.4266"/><path d="m67.489 30.76-40.429 8.2292"/><path d="m68.092 31.507-41 8.0318"/><path d="m68.694 32.254-41.571 7.8344"/><path d="m69.297 33.001-42.142 7.6369"/><path d="m69.899 33.748-42.713 7.4395"/><path d="m70.502 34.495-43.284 7.2421"/><path d="m71.104 35.242-43.856 7.0446"/><path d="m71.707 35.988-44.426 6.8472"/><path d="m72.309 36.735-44.998 6.6498"/><path d="m72.912 37.482-45.568 6.4524"/></g></g><g><path d="m27.819 7.1228a30.67 24.065 75.993 0 0-20.733 27.535 30.67 24.065 75.993 0 0 5.7446 19.503c1.7188 0.77134 3.4972 1.5319 5.8862 2.1692l0.42862-2.3589 16.866 4.2169 1.9303 2.5727c2.7898 0.94875 6.0802 1.0624 9.4335 1.072l1.0269-0.12949a30.67 24.065 75.993 0 0 7.6729-21.517 30.67 24.065 75.993 0 0-25.063-32.96 30.67 24.065 75.993 0 0-3.193-0.10339z" fill="url(#linearGradient94)" stroke="#000" stroke-linecap="round" stroke-linejoin="round" stroke-width=".79375"/><path d="m41.086 11.375c-3.1892 13.182-3.0195 31.504-0.97066 49.561 0.35414 0.06793 0.73982 0.07457 1.1041 0.12564-2.5477-18.477-2.6849-34.798-0.13342-49.686z" fill="#737373"/><path d="m21.399 9.8029c-0.79057 17.629-2.47 27.071-5.0239 45.415 0.28247 0.09916 0.59919 0.19749 0.8993 0.2931 2.0709-17.819 4.3313-27.91 4.1246-45.708z" fill="#959595"/></g><ellipse transform="rotate(-8.2255)" cx="22.925" cy="42.104" rx="3.3948" ry="4.0738" fill="#404040"/><g transform="matrix(.94763 .19613 0 1.0553 0 0)" stroke-linecap="round" stroke-linejoin="round"><path d="m19.15 21.95q-0.58196 0-1.0217-0.25865-0.42677-0.25865-0.65956-0.69836t-0.23278-0.98287q0-1.0346 0.85354-1.5907 0.85354-0.56903 2.7546-0.76302-0.01293-0.28452-0.12932-0.4785-0.10346-0.20692-0.32331-0.31038-0.21985-0.11639-0.5561-0.11639-0.40091 0-0.81475 0.14226-0.41384 0.14226-0.89234 0.41384l-0.67249-1.2415q0.41384-0.25865 0.85354-0.4397 0.4397-0.19399 0.90528-0.29745 0.4785-0.10346 0.98287-0.10346 0.82768 0 1.3838 0.32331 0.56903 0.31038 0.86648 0.957 0.29745 0.63369 0.29745 1.6295v3.6599h-1.5519l-0.12932-0.65956h-0.05173q-0.41384 0.36211-0.86648 0.5949-0.45264 0.21985-0.9958 0.21985zm0.63369-1.4872q0.32331 0 0.56903-0.14226 0.24572-0.14226 0.49144-0.38798v-1.0863q-0.67249 0.09053-1.0734 0.23278-0.38798 0.14226-0.5561 0.34918-0.15519 0.19399-0.15519 0.4397 0 0.29745 0.19399 0.45264 0.20692 0.14226 0.53023 0.14226zm4.5652 1.332v-6.4145h1.9011v6.4145zm0.94407-7.3586q-0.4785 0-0.77595-0.27158-0.29745-0.27158-0.29745-0.72422 0-0.45264 0.29745-0.72422 0.29745-0.27158 0.77595-0.27158 0.4785 0 0.77595 0.27158 0.29745 0.27158 0.29745 0.72422 0 0.45264-0.29745 0.72422-0.29745 0.27158-0.77595 0.27158zm2.6253 7.3586v-6.4145h1.5519l0.12932 1.1251h0.05173q0.34918-0.64662 0.82768-0.957 0.49144-0.32331 0.9958-0.32331 0.27158 0 0.45264 0.0388 0.18106 0.02586 0.31038 0.09053l-0.36211 1.6166q-0.15519-0.0388-0.29745-0.05173-0.14226-0.02586-0.34918-0.02586-0.36211 0-0.76302 0.25865-0.38798 0.25865-0.64662 0.91821v3.7246zm8.8458 2.3796v-1.9528l0.0776-0.98287q-0.31038 0.31038-0.75008 0.5173-0.42677 0.19399-0.86648 0.19399-1.1898 0-1.914-0.89234-0.71129-0.90528-0.71129-2.4701 0-1.0475 0.37504-1.7976 0.38798-0.75008 0.9958-1.151 0.62076-0.41384 1.2932-0.41384 0.53023 0 0.93114 0.19399 0.40091 0.18106 0.77595 0.5949h0.05173l0.15519-0.63369h1.4872v8.7941zm-1.0475-3.7763q0.31038 0 0.56903-0.12932t0.4785-0.45264v-2.6253q-0.24572-0.23278-0.5173-0.32331-0.27158-0.09053-0.54316-0.09053-0.31038 0-0.56903 0.19399-0.25865 0.19399-0.42677 0.5949-0.15519 0.38798-0.15519 0.9958 0 0.94407 0.31038 1.3967 0.31038 0.4397 0.85354 0.4397zm6.8284 3.3624q-0.85354 0-1.2545-0.40091-0.40091-0.40091-0.40091-1.4355 0-0.46557 0.02587-0.80182 0.0388-0.34918 0.06466-0.67249 0.0388-0.32331 0.0388-0.73715 0-0.34918-0.24572-0.64662-0.23278-0.29745-0.86648-0.31038v-1.1122q0.42677-0.01293 0.65956-0.15519 0.24572-0.14226 0.34918-0.34918 0.10346-0.21985 0.10346-0.45264 0-0.41384-0.0388-0.73715-0.02586-0.32331-0.06466-0.65956-0.02587-0.34918-0.02587-0.81475 0-1.0475 0.40091-1.4355 0.40091-0.40091 1.2545-0.40091h0.81475v1.0087h-0.24572q-0.40091 0-0.54316 0.18106-0.14226 0.18106-0.14226 0.72422 0 0.5173 0.02586 1.0217 0.02587 0.49144 0.02587 1.0863 0 0.73715-0.23278 1.0734-0.23278 0.32331-0.72422 0.4397v0.05173q0.49144 0.11639 0.72422 0.45264 0.23278 0.32331 0.23278 1.0605 0 0.58196-0.02587 1.0863-0.02586 0.50437-0.02586 1.0217 0 0.54316 0.14226 0.72422 0.14226 0.18106 0.54316 0.18106h0.24572v1.0087zm2.0045 0v-1.0087h0.24572q0.40091 0 0.54316-0.18106 0.14226-0.18106 0.14226-0.72422 0-0.5173-0.02587-1.0217-0.02586-0.50437-0.02586-1.0863 0-0.73715 0.23278-1.0605 0.24572-0.33624 0.72422-0.45264v-0.05173q-0.4785-0.11639-0.72422-0.4397-0.23278-0.33624-0.23278-1.0734 0-0.5949 0.02586-1.0863 0.02587-0.50437 0.02587-1.0217 0-0.54316-0.14226-0.72422-0.14226-0.18106-0.54316-0.18106h-0.24572v-1.0087h0.81475q0.85354 0 1.2545 0.40091 0.40091 0.38798 0.40091 1.4355 0 0.46557-0.0388 0.81475-0.02586 0.33624-0.06466 0.65956-0.02587 0.32331-0.02587 0.73715 0 0.23278 0.10346 0.45264 0.10346 0.20692 0.34918 0.34918 0.24572 0.14226 0.65956 0.15519v1.1122q-0.63369 0.01293-0.87941 0.31038-0.23278 0.29745-0.23278 0.64662 0 0.41384 0.02587 0.73715 0.0388 0.32331 0.06466 0.67249 0.0388 0.33624 0.0388 0.80182 0 1.0346-0.40091 1.4355-0.40091 0.40091-1.2545 0.40091z" fill="#f60" stop-color="#000000"/><path d="m25.293 11.65c-0.46917 0-0.95574 0.15456-1.3105 0.47852-0.36045 0.32911-0.55664 0.83492-0.55664 1.3105s0.19619 0.98144 0.55664 1.3105c0.04021 0.03671 0.10505 0.02229 0.14844 0.05469a0.79383 0.79383 0 0 0-0.57617 0.57617v6.4141a0.79383 0.79383 0 0 0 0.79492 0.79297h1.9004a0.79383 0.79383 0 0 0 0.79492-0.79297v-6.4141a0.79383 0.79383 0 0 0-0.58008-0.58008c0.0408-0.03081 0.10267-0.01613 0.14062-0.05078 0.36045-0.32911 0.55469-0.83492 0.55469-1.3105s-0.19423-0.98144-0.55469-1.3105c-0.35481-0.32396-0.84333-0.47852-1.3125-0.47852zm17.252 0.19336c-0.69264 0-1.3462 0.16936-1.8125 0.63477-0.51648 0.50622-0.63672 1.2009-0.63672 1.9961 0 0.32508 0.01013 0.61434 0.0293 0.87305a0.79383 0.79383 0 0 0 2e-3 0.0332c0.02485 0.21533 0.04603 0.42497 0.0625 0.63086a0.79383 0.79383 0 0 0 0.0039 0.03125c0.02109 0.17576 0.03125 0.39149 0.03125 0.64258 0 0.03249-0.0076 0.06175-0.02344 0.09961 0.0093-0.01429 0.02315-0.01587-0.03125 0.01563a0.79383 0.79383 0 0 0-0.01758 0.0098c0.01984-0.01213-0.06872 0.03298-0.26953 0.03906a0.79383 0.79383 0 0 0-0.42383 0.4375v-1.9062a0.79383 0.79383 0 0 0-0.79297-0.79492h-1.4883a0.79383 0.79383 0 0 0-0.39258 0.30859c-0.08949-0.05444-0.15894-0.14797-0.25391-0.19141-0.38847-0.18606-0.82072-0.27148-1.2676-0.27148-0.61115 0-1.2085 0.1976-1.7324 0.54688-0.22402 0.14803-0.34785 0.41547-0.5332 0.61328l0.01367-0.06445a0.79383 0.79383 0 0 0-0.41801-0.88285c-0.17318-0.0866-0.35301-0.13085-0.53125-0.1582-0.19015-0.03797-0.38005-0.05469-0.58789-0.05469-0.5044 0-0.99683 0.16857-1.4277 0.45117-4.04e-4 2.61e-4 4.04e-4 0.0017 0 2e-3 -0.04412 0.02865-0.06512 0.08799-0.10742 0.11914a0.79383 0.79383 0 0 0-0.46875-0.41797h-1.5527a0.79383 0.79383 0 0 0-0.79297 0.79488v6.4141a0.79383 0.79383 0 0 0 0.79297 0.79297h1.9023a0.79383 0.79383 0 0 0 0.79297-0.79297v-3.5215c0.11458-0.24222 0.23404-0.42059 0.29102-0.45898 0.16813-0.10618 0.27308-0.12695 0.32422-0.12695 0.10488 0 0.18078 0.0066 0.20898 0.01172a0.79383 0.79383 0 0 0 0.06836 0.0098c0.04947 0.0045 0.10951 0.01419 0.17774 0.03125a0.79383 0.79383 0 0 0 0.31445-0.04883c-0.05174 0.3054-0.19141 0.56614-0.19141 0.89648 0 1.1635 0.2694 2.1808 0.88086 2.959a0.79383 0.79383 0 0 0 0.0078 0.0098c0.61684 0.76004 1.5377 1.1875 2.5293 1.1875 0.25585 0 0.49882-0.0969 0.74609-0.16602v1.5957a0.79383 0.79383 0 0 0 0.79297 0.79492h1.9023a0.79383 0.79383 0 0 0 0.79297-0.79492v-5.0645a0.79383 0.79383 0 0 0 0.43164 0.43945c0.30033 0.0061 0.31463 0.07845 0.25781 0.0059a0.79383 0.79383 0 0 0 0.01367 0.01563c0.06668 0.08072 0.0625 0.09598 0.0625 0.14258 0 0.25109-0.01016 0.46682-0.03125 0.64258a0.79383 0.79383 0 0 0-0.0039 0.03125c-0.01653 0.20673-0.03746 0.42314-0.0625 0.64844a0.79383 0.79383 0 0 0-2e-3 0.02539c-0.0194 0.2521-0.0293 0.5382-0.0293 0.86328 0 0.79226 0.12609 1.4874 0.63477 1.9961 0.46643 0.46643 1.1211 0.63476 1.8145 0.63476h0.81445a0.79383 0.79383 0 0 0 0.5957-0.5957 0.79383 0.79383 0 0 0 0.5957 0.5957h0.81445c0.6933 0 1.348-0.16833 1.8145-0.63476 0.50868-0.50868 0.63477-1.2038 0.63477-1.9961 0-0.33243-0.01427-0.62697-0.04492-0.89258-0.01684-0.22176-0.03789-0.4357-0.0625-0.64453-3.93e-4 -0.0049 3.84e-4 -0.01261 0-0.01758-5.29e-4 -0.0044-0.0014-0.0092-2e-3 -0.01367-0.01379-0.18322-0.02148-0.39526-0.02148-0.64258 0-0.05089 0.01254-0.08021 0.05859-0.14258-0.04192 0.04945-0.01691-0.01548 0.27734-0.02148a0.79383 0.79383 0 0 0 0.77734-0.79297v-1.1133a0.79383 0.79383 0 0 0-0.76953-0.79297c-0.18998-0.0059-0.28149-0.04557-0.28711-0.04883-0.05206-0.03014-0.03969-0.02759-0.03125-0.01563-0.01586-0.0379-0.02539-0.06711-0.02539-0.09961 0-0.24731 0.0077-0.45936 0.02148-0.64258 5.4e-4 -0.0045 0.0014-0.0092 2e-3 -0.01367 0.02654-0.2228 0.04869-0.44931 0.06641-0.67969l-0.0039 0.02734c0.03014-0.27127 0.04492-0.56991 0.04492-0.90234 0-0.7952-0.12024-1.4899-0.63672-1.9961-0.46635-0.46541-1.1199-0.63477-1.8125-0.63477h-0.81445a0.79383 0.79383 0 0 0-0.5957 0.5957 0.79383 0.79383 0 0 0-0.5957-0.5957zm-17.252 1.3945c0.16883 0 0.19845 0.0263 0.24023 0.06445 0.03614 0.033 0.03906 0.0088 0.03906 0.13672 0 0.12789-0.0029 0.10567-0.03906 0.13867-0.04179 0.03815-0.0714 0.06445-0.24023 0.06445s-0.19845-0.0263-0.24024-0.06445c-0.03614-0.033-0.03906-0.01078-0.03906-0.13867 0-0.12789 0.0029-0.10372 0.03906-0.13672 0.04178-0.03815 0.0714-0.06445 0.24024-0.06445zm16.588 0.35352c-0.08019 0.1605-0.10664 0.32666-0.12305 0.48438 0.04101-0.16395 0.08015-0.46119 0.08594-0.4668a0.79383 0.79383 0 0 0 0.0078-0.0098c0.0029-0.0029 0.02599-0.0048 0.0293-0.0078zm4.1484 0c0.0033 3e-3 0.0264 0.0049 0.0293 0.0078a0.79383 0.79383 0 0 0 0.0078 0.0098c0.0058 0.0056 0.04493 0.30284 0.08594 0.4668-0.0164-0.15772-0.04286-0.32387-0.12305-0.48438zm-2.0742 0.25391a0.79383 0.79383 0 0 0 0.5957 0.5957h0.15039c0.01211 0.048-0.01367-0.02786-0.01367 0.11133 0 0.33164-0.0089 0.65809-0.02539 0.98047-0.01812 0.34441-0.02734 0.71886-0.02734 1.127 0 0.57499 0.06529 1.078 0.375 1.5254a0.79383 0.79383 0 0 0 0.01367 0.02148c-5.46e-4 7.46e-4 -0.0014 0.0012-2e-3 2e-3a0.79383 0.79383 0 0 0-0.0039 0.0059c-0.32233 0.44768-0.38281 0.94845-0.38281 1.5234 0 0.39973 0.0093 0.77512 0.02734 1.127 0.01654 0.32238 0.02539 0.64883 0.02539 0.98047 0 0.13918 0.02578 0.06333 0.01367 0.11133h-0.15039a0.79383 0.79383 0 0 0-0.5957 0.5957 0.79383 0.79383 0 0 0-0.5957-0.5957h-0.15039c-0.01211-0.048 0.01367 0.02786 0.01367-0.11133 0-0.33164 0.0089-0.65808 0.02539-0.98047 0.01805-0.35184 0.02539-0.72722 0.02539-1.127 0-0.57204-0.0609-1.0697-0.37891-1.5156-5e-3 -0.0072-0.01634-0.0066-0.02148-0.01367 0.0047-0.0063 0.01492-0.0053 0.01953-0.01172a0.79383 0.79383 0 0 0 0.0078-0.01172c0.30971-0.44736 0.37305-0.9504 0.37305-1.5254 0-0.4081-0.0073-0.78254-0.02539-1.127-0.01653-0.32239-0.02539-0.64883-0.02539-0.98047 0-0.13918-0.02578-0.06333-0.01367-0.11133h0.15039a0.79383 0.79383 0 0 0 0.5957-0.5957zm-23.758 0.58594c-0.39052 0-0.77508 0.03995-1.1504 0.12109a0.79383 0.79383 0 0 0-0.0039 0c-0.35926 0.07984-0.70852 0.19687-1.0469 0.3457-0.0019 8.33e-4 -4e-3 0.0011-0.0059 2e-3 -0.32886 0.13658-0.64812 0.30034-0.95508 0.49219a0.79383 0.79383 0 0 0-0.27734 1.0508l0.67383 1.2422a0.79383 0.79383 0 0 0 0.16602 0.13281c-0.71324 0.50003-1.1543 1.3134-1.1543 2.1914 0 0.4755 0.10579 0.94093 0.32422 1.3535 0.21893 0.41353 0.54891 0.76325 0.94922 1.0059a0.79383 0.79383 0 0 0 0.0098 0.0059c0.42504 0.25003 0.91826 0.36914 1.4238 0.36914 0.4692 0 0.9278-0.0997 1.3418-0.30078a0.79383 0.79383 0 0 0 0.01758-0.0078c0.09604-0.04939 0.17834-0.12932 0.27148-0.18555a0.79383 0.79383 0 0 0 0.41211 0.33789h1.5527a0.79383 0.79383 0 0 0 0.79297-0.79297v-3.6602c0-0.74219-0.10736-1.398-0.37305-1.9648-0.25744-0.55698-0.67262-1.023-1.1992-1.3125-0.51603-0.29657-1.1195-0.42578-1.7695-0.42578zm0 1.5859c0.44843 0 0.76352 0.08726 0.98633 0.2168a0.79383 0.79383 0 0 0 0.01758 0.0098c0.22697 0.1238 0.38725 0.29149 0.52539 0.5918a0.79383 0.79383 0 0 0 0.0039 0.0059c0.13035 0.27769 0.2207 0.70813 0.2207 1.293v2.8652h-0.10352l-0.0039-0.01758a0.79383 0.79383 0 0 0-0.51758-0.42578c0.02516-0.02388 0.05531-0.03773 0.08008-0.0625a0.79383 0.79383 0 0 0 0.23242-0.5625v-1.0859a0.79383 0.79383 0 0 0-0.48633-0.66211 0.79383 0.79383 0 0 0 0.48438-0.56445c-0.01264-0.27807-0.08439-0.55947-0.23047-0.81641-0.14503-0.27511-0.38944-0.50764-0.66211-0.64062-0.19413-0.09962-0.40289-0.11292-0.60938-0.13867 0.02148-3.37e-4 0.04089-0.0059 0.0625-0.0059zm15.066 0c0.09319 0 0.13715 0.0301 0.21289 0.04102-0.29044 0.04321-0.58779 0.10442-0.81836 0.27734-0.31637 0.23728-0.53108 0.56284-0.68164 0.92188a0.79383 0.79383 0 0 0-0.0059 0.01367c-0.15654 0.39136-0.21094 0.81629-0.21094 1.2891 0 0.71637 0.09674 1.3317 0.44922 1.8457a0.79383 0.79383 0 0 0 0.0059 0.0098c0.28904 0.40948 0.80438 0.60647 1.3047 0.67383-0.09726 0.02395-0.19847 0.06641-0.29492 0.06641-0.5922 0-0.94368-0.17198-1.291-0.59766-0.33457-0.42869-0.53906-1.0514-0.53906-1.9707 0-0.60206 0.10796-1.072 0.29102-1.4395 0.2064-0.39616 0.44464-0.66428 0.72266-0.84766a0.79383 0.79383 0 0 0 0.0039-2e-3c0.30377-0.20251 0.56606-0.28125 0.85156-0.28125zm-4.0039 0.07422-2e-3 0.0098c-0.0074-5e-5 -0.01403-0.0019-0.02148-2e-3 0.0075-0.0021 0.01607-6e-3 0.02344-0.0078zm0.39062 0.03711 0.07031 0.0098c-0.0083-0.0015-0.01708-5.45e-4 -0.02539-2e-3 -0.01505-0.0016-0.02985-0.0064-0.04492-0.0078zm-6.5078 0.04492h0.31445v4.8262h-0.31445zm3.5703 0h0.05078l0.04687 0.42188a0.79383 0.79383 0 0 0 0.6875 0.61328c-0.13036 0.19896-0.32552 0.33456-0.41797 0.57031a0.79383 0.79383 0 0 0-0.05469 0.29102v2.9297h-0.3125zm9.0879 0h0.07031v7.207h-0.3125v-1.1289l0.07422-0.95117a0.79383 0.79383 0 0 0-0.49805-0.77539c0.08844-0.09528 0.21169-0.15564 0.28516-0.26367a0.79383 0.79383 0 0 0 0.13867-0.44531v-2.625a0.79383 0.79383 0 0 0-0.24805-0.57617c-0.0066-0.0063-0.01677-0.0075-0.02344-0.01367a0.79383 0.79383 0 0 0 0.50781-0.39844zm-2.0977 1.3965c0.08484 0 0.17281 0.0179 0.26758 0.04687v1.8984c-0.0086 0.0061-0.03541 0.04114-0.03906 0.04297-0.05884 0.02942-0.11817 0.04492-0.21484 0.04492-0.14511 0-0.12541 0.0065-0.20117-0.10156-0.06164-0.09248-0.16797-0.40353-0.16797-0.94141 0-0.33582 0.04758-0.56885 0.09766-0.69531 0.07104-0.16391 0.13839-0.23904 0.16602-0.25976 0.05051-0.03788 0.05024-0.03516 0.0918-0.03516zm-18.047 0.18359c-0.0012 7.86e-4 -7.48e-4 0.0031-2e-3 0.0039-8.83e-4 5.88e-4 -3e-3 -5.88e-4 -0.0039 0zm23.324 0.41211-0.01563 0.0098c0.0031-0.0018 0.0047-6e-3 0.0078-0.0078 0.0025-0.0015 0.0054-4.53e-4 0.0078-2e-3zm-0.24609 0.06445a0.79383 0.79383 0 0 0 0.08203 0.10352c-0.03827-0.01864-0.0757-0.03317-0.11523-0.04883v-0.04687c0.01073-0.0042 0.02251-0.0034 0.0332-0.0078zm6.4375 0.0039c0.01184 0.0048 0.02521 0.0032 0.03711 0.0078v0.03516c-0.0352 0.01368-0.06927 0.02506-0.10352 0.04102a0.79383 0.79383 0 0 0 0.06641-0.08398zm-5.7871 0.32617 0.01367 0.01563c-0.0024-0.0031-0.0073-8.47e-4 -0.0098-0.0039-0.0026-0.0032-0.0013-0.0085-0.0039-0.01172zm-22.84 0.51562c-0.15158 0.23881-0.2793 0.5112-0.2793 0.79102 0 0.37085 0.1697 0.81427 0.49219 1.0723a0.79383 0.79383 0 0 0 0.04687 0.03516c0.15472 0.10637 0.33607 0.10186 0.50977 0.14648-0.0586 0.0061-0.09958 0.03516-0.16406 0.03516-0.26696 0-0.45147-0.05386-0.61133-0.14648-0.16725-0.10187-0.27816-0.21681-0.36914-0.38867-0.09195-0.17369-0.14062-0.36261-0.14062-0.61133 0-0.47145 0.11375-0.67795 0.49414-0.92578a0.79383 0.79383 0 0 0 0.0059-0.0039c0.0025-0.0016 0.01314-0.0023 0.01563-0.0039zm23.051 0.05273a0.79383 0.79383 0 0 0 0.0078 0.01172c-3.12e-4 -4.33e-4 0.0021 0.01576 2e-3 0.01563-0.0034-0.0093-0.0062-0.01809-0.0098-0.02734zm0.17188 3.2344c0.01826 0.14402 0.03986 0.2964 0.11328 0.44336-0.0033-3e-3 -0.0264-0.0049-0.0293-0.0078-0.01288-0.01288-0.04525-0.29483-0.08398-0.43555zm4.375 0c-0.03873 0.14071-0.07111 0.42267-0.08398 0.43555-0.0029 0.0029-0.02599 0.0048-0.0293 0.0078 0.07342-0.14696 0.09502-0.29934 0.11328-0.44336z" fill="#fff" stop-color="#000000"/></g><path transform="matrix(.94763 .19613 0 1.0553 0 0)" d="m19.15 21.95q-0.58196 0-1.0217-0.25865-0.42677-0.25865-0.65956-0.69836t-0.23278-0.98287q0-1.0346 0.85354-1.5907 0.85354-0.56903 2.7546-0.76302-0.01293-0.28452-0.12932-0.4785-0.10346-0.20692-0.32331-0.31038-0.21985-0.11639-0.5561-0.11639-0.40091 0-0.81475 0.14226-0.41384 0.14226-0.89234 0.41384l-0.67249-1.2415q0.41384-0.25865 0.85354-0.4397 0.4397-0.19399 0.90528-0.29745 0.4785-0.10346 0.98287-0.10346 0.82768 0 1.3838 0.32331 0.56903 0.31038 0.86648 0.957 0.29745 0.63369 0.29745 1.6295v3.6599h-1.5519l-0.12932-0.65956h-0.05173q-0.41384 0.36211-0.86648 0.5949-0.45264 0.21985-0.9958 0.21985zm0.63369-1.4872q0.32331 0 0.56903-0.14226 0.24572-0.14226 0.49144-0.38798v-1.0863q-0.67249 0.09053-1.0734 0.23278-0.38798 0.14226-0.5561 0.34918-0.15519 0.19399-0.15519 0.4397 0 0.29745 0.19399 0.45264 0.20692 0.14226 0.53023 0.14226zm4.5652 1.332v-6.4145h1.9011v6.4145zm0.94407-7.3586q-0.4785 0-0.77595-0.27158-0.29745-0.27158-0.29745-0.72422 0-0.45264 0.29745-0.72422 0.29745-0.27158 0.77595-0.27158 0.4785 0 0.77595 0.27158 0.29745 0.27158 0.29745 0.72422 0 0.45264-0.29745 0.72422-0.29745 0.27158-0.77595 0.27158zm2.6253 7.3586v-6.4145h1.5519l0.12932 1.1251h0.05173q0.34918-0.64662 0.82768-0.957 0.49144-0.32331 0.9958-0.32331 0.27158 0 0.45264 0.0388 0.18106 0.02586 0.31038 0.09053l-0.36211 1.6166q-0.15519-0.0388-0.29745-0.05173-0.14226-0.02586-0.34918-0.02586-0.36211 0-0.76302 0.25865-0.38798 0.25865-0.64662 0.91821v3.7246zm8.8458 2.3796v-1.9528l0.0776-0.98287q-0.31038 0.31038-0.75008 0.5173-0.42677 0.19399-0.86648 0.19399-1.1898 0-1.914-0.89234-0.71129-0.90528-0.71129-2.4701 0-1.0475 0.37504-1.7976 0.38798-0.75008 0.9958-1.151 0.62076-0.41384 1.2932-0.41384 0.53023 0 0.93114 0.19399 0.40091 0.18106 0.77595 0.5949h0.05173l0.15519-0.63369h1.4872v8.7941zm-1.0475-3.7763q0.31038 0 0.56903-0.12932t0.4785-0.45264v-2.6253q-0.24572-0.23278-0.5173-0.32331-0.27158-0.09053-0.54316-0.09053-0.31038 0-0.56903 0.19399-0.25865 0.19399-0.42677 0.5949-0.15519 0.38798-0.15519 0.9958 0 0.94407 0.31038 1.3967 0.31038 0.4397 0.85354 0.4397zm6.8284 3.3624q-0.85354 0-1.2545-0.40091-0.40091-0.40091-0.40091-1.4355 0-0.46557 0.02587-0.80182 0.0388-0.34918 0.06466-0.67249 0.0388-0.32331 0.0388-0.73715 0-0.34918-0.24572-0.64662-0.23278-0.29745-0.86648-0.31038v-1.1122q0.42677-0.01293 0.65956-0.15519 0.24572-0.14226 0.34918-0.34918 0.10346-0.21985 0.10346-0.45264 0-0.41384-0.0388-0.73715-0.02586-0.32331-0.06466-0.65956-0.02587-0.34918-0.02587-0.81475 0-1.0475 0.40091-1.4355 0.40091-0.40091 1.2545-0.40091h0.81475v1.0087h-0.24572q-0.40091 0-0.54316 0.18106-0.14226 0.18106-0.14226 0.72422 0 0.5173 0.02586 1.0217 0.02587 0.49144 0.02587 1.0863 0 0.73715-0.23278 1.0734-0.23278 0.32331-0.72422 0.4397v0.05173q0.49144 0.11639 0.72422 0.45264 0.23278 0.32331 0.23278 1.0605 0 0.58196-0.02587 1.0863-0.02586 0.50437-0.02586 1.0217 0 0.54316 0.14226 0.72422 0.14226 0.18106 0.54316 0.18106h0.24572v1.0087zm2.0045 0v-1.0087h0.24572q0.40091 0 0.54316-0.18106 0.14226-0.18106 0.14226-0.72422 0-0.5173-0.02587-1.0217-0.02586-0.50437-0.02586-1.0863 0-0.73715 0.23278-1.0605 0.24572-0.33624 0.72422-0.45264v-0.05173q-0.4785-0.11639-0.72422-0.4397-0.23278-0.33624-0.23278-1.0734 0-0.5949 0.02586-1.0863 0.02587-0.50437 0.02587-1.0217 0-0.54316-0.14226-0.72422-0.14226-0.18106-0.54316-0.18106h-0.24572v-1.0087h0.81475q0.85354 0 1.2545 0.40091 0.40091 0.38798 0.40091 1.4355 0 0.46557-0.0388 0.81475-0.02586 0.33624-0.06466 0.65956-0.02587 0.32331-0.02587 0.73715 0 0.23278 0.10346 0.45264 0.10346 0.20692 0.34918 0.34918 0.24572 0.14226 0.65956 0.15519v1.1122q-0.63369 0.01293-0.87941 0.31038-0.23278 0.29745-0.23278 0.64662 0 0.41384 0.02587 0.73715 0.0388 0.32331 0.06466 0.67249 0.0388 0.33624 0.0388 0.80182 0 1.0346-0.40091 1.4355-0.40091 0.40091-1.2545 0.40091z" fill="#f60" stroke-linecap="round" stroke-linejoin="round" stroke-width="9.948" aria-label="airq{}"/></svg>
